<?xml version="1.0" encoding="UTF-8"?>
<svg version="1.1" xmlns="http://www.w3.org/2000/svg" width="512" height="512">
<path d="M0 0 C1.45108658 0.00273422 1.45108658 0.00273422 2.93148804 0.00552368 C17.26440977 0.05095174 31.21023917 0.55983928 45.3125 3.3125 C46.65803955 3.55395752 46.65803955 3.55395752 48.03076172 3.80029297 C107.84088904 14.62287989 165.35495829 48.68064457 202.3125 97.3125 C202.72918945 97.85277832 203.14587891 98.39305664 203.57519531 98.94970703 C211.2584873 108.9447116 218.00092968 119.40459036 224.3125 130.3125 C224.70679199 130.98974121 225.10108398 131.66698242 225.50732422 132.36474609 C238.68961173 155.2833756 247.29510918 180.85822563 252.625 206.6875 C252.77243652 207.39817627 252.91987305 208.10885254 253.07177734 208.84106445 C256.05713787 224.48358366 256.6873098 240.11919606 256.625 256 C256.62226578 257.45108658 256.62226578 257.45108658 256.61947632 258.93148804 C256.57404826 273.26440977 256.06516072 287.21023917 253.3125 301.3125 C253.15152832 302.20952637 252.99055664 303.10655273 252.82470703 304.03076172 C241.67268126 365.66150546 205.99947817 424.16034615 155.3125 461.3125 C154.45857666 461.94961914 154.45857666 461.94961914 153.58740234 462.59960938 C144.8447849 469.11651959 135.78842938 474.92287157 126.3125 480.3125 C125.68069824 480.67698242 125.04889648 481.04146484 124.39794922 481.41699219 C101.37828699 494.59268166 75.85904551 503.27606895 49.9375 508.625 C49.22682373 508.77243652 48.51614746 508.91987305 47.78393555 509.07177734 C32.14141634 512.05713787 16.50580394 512.6873098 0.625 512.625 C-0.34239105 512.62317719 -1.3097821 512.62135437 -2.30648804 512.61947632 C-16.63940977 512.57404826 -30.58523917 512.06516072 -44.6875 509.3125 C-45.58452637 509.15152832 -46.48155273 508.99055664 -47.40576172 508.82470703 C-107.21588904 498.00212011 -164.72995829 463.94435543 -201.6875 415.3125 C-202.10418945 414.77222168 -202.52087891 414.23194336 -202.95019531 413.67529297 C-210.6334873 403.6802884 -217.37592968 393.22040964 -223.6875 382.3125 C-224.08179199 381.63525879 -224.47608398 380.95801758 -224.88232422 380.26025391 C-238.06461173 357.3416244 -246.67010918 331.76677437 -252 305.9375 C-252.14743652 305.22682373 -252.29487305 304.51614746 -252.44677734 303.78393555 C-255.43213787 288.14141634 -256.0623098 272.50580394 -256 256.625 C-255.99817719 255.65760895 -255.99635437 254.6902179 -255.99447632 253.69351196 C-255.94904826 239.36059023 -255.44016072 225.41476083 -252.6875 211.3125 C-252.44604248 209.96696045 -252.44604248 209.96696045 -252.19970703 208.59423828 C-241.37712011 148.78411096 -207.31935543 91.27004171 -158.6875 54.3125 C-158.14722168 53.89581055 -157.60694336 53.47912109 -157.05029297 53.04980469 C-147.0552884 45.3665127 -136.59540964 38.62407032 -125.6875 32.3125 C-125.01025879 31.91820801 -124.33301758 31.52391602 -123.63525391 31.11767578 C-100.7166244 17.93538827 -75.14177437 9.32989082 -49.3125 4 C-48.60182373 3.85256348 -47.89114746 3.70512695 -47.15893555 3.55322266 C-31.51641634 0.56786213 -15.88080394 -0.0623098 0 0 Z " fill="#87C4CB" transform="translate(255.6875,-0.3125)"/>
<path d="M0 0 C2.57396311 0.32536131 5.1480198 0.64998302 7.72216797 0.97387695 C22.47297583 2.83870528 37.21193346 4.78066697 51.93359375 6.86328125 C68.46942154 9.20056433 85.04226828 11.25773619 101.625 13.23046875 C102.71742508 13.36060364 103.80985016 13.49073853 104.93537903 13.62481689 C110.38564513 14.27342136 115.83633775 14.91803642 121.2878418 15.55615234 C131.04594423 16.70532132 140.79424815 17.90590278 150.51953125 19.30859375 C151.3463591 19.42356705 152.17318695 19.53854034 153.02507019 19.65699768 C160.98883338 20.84332023 160.98883338 20.84332023 163.25 22.75 C164.63855612 25.4626247 165.78987944 28.05540933 166.890625 30.8828125 C167.23063538 31.72288849 167.57064575 32.56296448 167.92095947 33.42849731 C168.65696961 35.24915725 169.38728167 37.07212868 170.11254883 38.89709473 C171.63861203 42.72469971 173.20594548 46.53489321 174.77111816 50.34663391 C176.42762821 54.38538756 178.07223464 58.42894971 179.71728516 62.47238159 C181.90787504 67.85634828 184.1020777 73.23884108 186.296875 78.62109375 C186.72601196 79.67347733 187.15514893 80.7258609 187.59729004 81.81013489 C191.57994068 91.57039921 195.6001526 101.31471886 199.64746094 111.04833984 C200.47477038 113.03895534 201.29715933 115.03162716 202.11328125 117.02685547 C202.87075496 118.84147356 203.66003996 120.64313862 204.48046875 122.43017578 C207.82993161 129.96218037 207.47039037 134.60150576 204.71875 142.23828125 C204.07448609 143.8511937 203.41762628 145.45911679 202.75 147.0625 C202.21596558 148.36356689 202.21596558 148.36356689 201.67114258 149.69091797 C183.95222853 192.32596895 155.73183868 231.27684836 118.25 258.75 C117.39607666 259.38711914 117.39607666 259.38711914 116.52490234 260.03710938 C107.7822849 266.55401959 98.72592938 272.36037157 89.25 277.75 C88.61819824 278.11448242 87.98639648 278.47896484 87.33544922 278.85449219 C64.31578699 292.03018166 38.79654551 300.71356895 12.875 306.0625 C12.16432373 306.20993652 11.45364746 306.35737305 10.72143555 306.50927734 C-4.92108366 309.49463787 -20.55669606 310.1248098 -36.4375 310.0625 C-37.40489105 310.06067719 -38.3722821 310.05885437 -39.36898804 310.05697632 C-53.70190977 310.01154826 -67.64773917 309.50266072 -81.75 306.75 C-82.64702637 306.58902832 -83.54405273 306.42805664 -84.46826172 306.26220703 C-90.25013487 305.21598246 -95.93888156 303.95336403 -101.6328125 302.50439453 C-103.81462904 301.97637032 -106.00921648 301.49968454 -108.2109375 301.06201172 C-109.39945312 300.82369629 -110.58796875 300.58538086 -111.8125 300.33984375 C-113.41544922 300.03614868 -113.41544922 300.03614868 -115.05078125 299.72631836 C-129.37473543 295.87057114 -129.37473543 295.87057114 -133.62402344 290.28794861 C-135.09931347 287.28225694 -136.25086076 284.28970138 -137.34375 281.125 C-137.78241394 279.98053909 -138.22107788 278.83607819 -138.67303467 277.65693665 C-139.59744799 275.24352021 -140.50440773 272.82335311 -141.39465332 270.39712524 C-143.13623026 265.71068647 -145.02481729 261.09189024 -146.92327881 256.4672699 C-148.34170674 253.00986336 -149.74025457 249.54504925 -151.1328125 246.07714844 C-151.60106445 244.91115112 -152.06931641 243.74515381 -152.55175781 242.54382324 C-153.02967773 241.35373657 -153.50759766 240.1636499 -154 238.9375 C-155.01246257 236.42067359 -156.0257059 233.90416187 -157.0390625 231.38769531 C-157.54749067 230.12503266 -158.05591354 228.86236787 -158.56433105 227.59970093 C-158.81476669 226.97774212 -159.06520233 226.35578331 -159.32322693 225.71497726 C-160.07285455 223.85293532 -160.82218278 221.99077318 -161.57141113 220.12857056 C-165.61507139 210.07925495 -169.67635598 200.03719311 -173.75 190 C-174.34343291 188.53735694 -174.93685745 187.07471048 -175.53027344 185.61206055 C-176.68795402 182.75887182 -177.84586857 179.90577818 -179.00390625 177.05273438 C-181.77288647 170.23023573 -184.53845022 163.40635166 -187.30444336 156.5826416 C-188.86950531 152.72171096 -190.43476197 148.86085926 -192 145 C-192.62500094 143.45833372 -193.25000094 141.91666705 -193.875 140.375 C-194.184375 139.611875 -194.49375 138.84875 -194.8125 138.0625 C-195.75 135.75 -196.6875 133.4375 -197.625 131.125 C-197.93435486 130.36192535 -198.24370972 129.59885071 -198.56243896 128.81265259 C-199.1876443 127.27047806 -199.81284775 125.72830277 -200.43804932 124.18612671 C-201.99739215 120.33972403 -203.55676748 116.49333454 -205.11621094 112.64697266 C-207.96637342 105.61696313 -210.81638714 98.58689372 -213.66493225 91.55622864 C-214.31418839 89.95400993 -214.96363228 88.35186729 -215.61326599 86.74980164 C-217.2037877 82.82700923 -218.79162099 78.90317719 -220.37329102 74.97680664 C-222.96745372 68.54551738 -225.56910832 62.1215672 -228.31509399 55.7532959 C-229.11806479 53.8909214 -229.91307667 52.02533931 -230.70605469 50.15869141 C-231.65363867 47.93839658 -232.61762586 45.72498578 -233.60253906 43.52099609 C-236.61502767 36.41184765 -237.30962724 30.44423577 -236.75 22.75 C-233.03867494 20.46933767 -229.15569353 20.10006192 -224.91796875 19.6015625 C-224.14301559 19.50439438 -223.36806244 19.40722626 -222.56962585 19.30711365 C-220.02636565 18.98970131 -217.48198074 18.68246031 -214.9375 18.375 C-213.15305991 18.15369931 -211.3687182 17.93160401 -209.58447266 17.70874023 C-205.98460268 17.25979332 -202.38434476 16.8142014 -198.78369141 16.37158203 C-192.06085983 15.54370164 -185.34264705 14.68144482 -178.625 13.8125 C-176.80742187 13.57877686 -176.80742187 13.57877686 -174.953125 13.34033203 C-167.30539013 12.35305408 -159.66164651 11.33846362 -152.01953125 10.30859375 C-148.15889598 9.78875136 -144.29822451 9.26917925 -140.4375 8.75 C-139.47269714 8.62023773 -138.50789429 8.49047546 -137.51385498 8.35678101 C-124.25044916 6.57661559 -110.98019802 4.90952743 -97.68466187 3.38876343 C-86.50009968 2.10813432 -75.35104498 0.64881252 -64.20703125 -0.94384766 C-61.05628272 -1.39217369 -57.90421575 -1.82680939 -54.75 -2.25 C-53.94820312 -2.36037598 -53.14640625 -2.47075195 -52.3203125 -2.58447266 C-34.69553695 -4.7022645 -17.47879861 -2.26126696 0 0 Z " fill="#7FB8BE" transform="translate(292.75,202.25)"/>
<path d="M0 0 C2.57396311 0.32536131 5.1480198 0.64998302 7.72216797 0.97387695 C22.47297583 2.83870528 37.21193346 4.78066697 51.93359375 6.86328125 C68.46942154 9.20056433 85.04226828 11.25773619 101.625 13.23046875 C102.71742508 13.36060364 103.80985016 13.49073853 104.93537903 13.62481689 C110.38564513 14.27342136 115.83633775 14.91803642 121.2878418 15.55615234 C131.04594423 16.70532132 140.79424815 17.90590278 150.51953125 19.30859375 C151.3463591 19.42356705 152.17318695 19.53854034 153.02507019 19.65699768 C156.74598804 20.21128447 160.02650255 20.73321722 163.25 22.75 C163.54296875 28.8046875 163.54296875 28.8046875 163.25 30.75 C159.89486141 32.98675906 157.55187326 33.45513173 153.609375 34.23046875 C152.94235565 34.36418884 152.2753363 34.49790894 151.58810425 34.63568115 C150.14597564 34.92441815 148.70327175 35.21029342 147.2600708 35.49362183 C143.42312819 36.24719781 139.59036555 37.02132631 135.7578125 37.796875 C134.5795137 38.03488075 134.5795137 38.03488075 133.37741089 38.2776947 C123.84655245 40.21717659 114.37179686 42.40257305 104.90136719 44.6159668 C103.68868164 44.89609619 102.47599609 45.17622559 101.2265625 45.46484375 C100.16518066 45.71355225 99.10379883 45.96226074 98.01025391 46.21850586 C95.25 46.75 95.25 46.75 91.25 46.75 C91.25999275 48.30522118 91.25999275 48.30522118 91.27018738 49.89186096 C91.33107454 59.67588287 91.37600916 69.45986619 91.40543652 79.24403477 C91.42107415 84.27385433 91.44227774 89.3035206 91.47631836 94.33325195 C91.50897955 99.18970682 91.52686732 104.04601448 91.53463173 108.90257072 C91.5401631 110.7528814 91.55096453 112.60318428 91.56719017 114.45343208 C91.58905438 117.05059167 91.59196318 119.64714755 91.59057617 122.24438477 C91.60675491 123.38482742 91.60675491 123.38482742 91.6232605 124.54830933 C91.58185429 131.74131026 89.2226165 137.49666238 84.3671875 142.859375 C72.84153526 153.15165486 52.01192617 164.75 36.25 164.75 C33.4491872 162.73148485 31.54194111 161.08022813 30.78063011 157.61131859 C30.59334963 154.91148225 30.56635682 152.25003365 30.59057617 149.54370117 C30.58009247 148.51884613 30.56960876 147.49399109 30.55880737 146.43807983 C30.53004348 143.05606868 30.53635083 139.67508038 30.54296875 136.29296875 C30.52985461 133.94597591 30.51455127 131.59899436 30.49714661 129.25202942 C30.45725105 123.07884788 30.44710315 116.90596128 30.44311523 110.73266602 C30.4337925 104.43171211 30.39638426 98.13093212 30.36132812 91.83007812 C30.29670565 79.47006024 30.26350369 67.11017203 30.25 54.75 C26.1862548 53.07210375 22.05820191 51.62850098 17.89282227 50.22802734 C16.80890701 49.86183037 16.80890701 49.86183037 15.70309448 49.48823547 C13.32483795 48.68555635 10.94575867 47.88536201 8.56640625 47.0859375 C7.75103834 46.81195759 6.93567043 46.53797768 6.09559441 46.25569534 C1.78407651 44.80768658 -2.52824221 43.36208748 -6.84106445 41.91796875 C-10.40523064 40.72396493 -13.96762187 39.524872 -17.52856445 38.32128906 C-21.83698257 36.86509075 -26.14827702 35.41774082 -30.46177864 33.97667313 C-32.10181358 33.42714361 -33.74082061 32.87453624 -35.37875175 32.31876755 C-37.67090004 31.54174781 -39.96657857 30.77617615 -42.26342773 30.01318359 C-42.93530624 29.78255722 -43.60718475 29.55193085 -44.29942322 29.3143158 C-48.22557108 28.02566929 -51.62004457 27.33585418 -55.75 27.75 C-56.41 28.41 -57.07 29.07 -57.75 29.75 C-57.42673447 33.34679066 -57.42673447 33.34679066 -56.75 36.75 C-48.69253438 40.11345027 -40.48382046 42.95274245 -32.2109375 45.734375 C-30.8350927 46.19924102 -29.45933119 46.66435363 -28.08364868 47.12969971 C-24.49742576 48.34207016 -20.91009615 49.55113167 -17.32250977 50.75946045 C-13.64791369 51.99776381 -9.97439617 53.23925833 -6.30078125 54.48046875 C0.88177248 56.90673514 8.06550073 59.32949988 15.25 61.75 C15.36581875 74.44116133 15.45467765 87.13219705 15.50906086 99.82377911 C15.53516136 105.71693772 15.57056862 111.60973494 15.62719727 117.50268555 C15.68149947 123.18908556 15.71141712 128.87513784 15.72438622 134.56177711 C15.73362921 136.73195687 15.75167862 138.90211745 15.77865028 141.07214928 C15.81491594 144.1106119 15.81994627 147.14763528 15.81762695 150.1862793 C15.84459152 151.53387329 15.84459152 151.53387329 15.87210083 152.90869141 C15.83517649 157.37540042 15.7796972 159.12373322 12.80070496 162.64582825 C11.95897232 163.34020493 11.11723969 164.0345816 10.25 164.75 C9.79496094 165.81605469 9.33992187 166.88210938 8.87109375 167.98046875 C7.25 170.75 7.25 170.75 4.16015625 171.73828125 C2.89042969 171.84527344 1.62070312 171.95226562 0.3125 172.0625 C-0.38407715 172.12679199 -1.0806543 172.19108398 -1.79833984 172.25732422 C-4.11433611 172.45740919 -6.42972787 172.60836506 -8.75 172.75 C-9.56903809 172.80494629 -10.38807617 172.85989258 -11.23193359 172.91650391 C-21.73041355 173.60343398 -32.22895428 173.99996005 -42.75 173.75 C-43.41741211 173.73743164 -44.08482422 173.72486328 -44.77246094 173.71191406 C-68.49837251 173.1856263 -92.92381003 170.35984521 -115.75 163.75 C-116.53503906 163.52586426 -117.32007813 163.30172852 -118.12890625 163.07080078 C-134.49631809 158.29472529 -154.04656397 151.06243404 -162.91015625 135.51171875 C-164.85081456 131.44084946 -164.91953823 127.75057755 -164.95532227 123.34106445 C-164.96522186 122.58960144 -164.97512146 121.83813843 -164.98532104 121.06390381 C-165.01690496 118.58039499 -165.04168116 116.09686704 -165.06640625 113.61328125 C-165.08697846 111.89120487 -165.10797501 110.1691335 -165.12937927 108.44706726 C-165.18457234 103.91466334 -165.23399382 99.38221406 -165.28222656 94.84973145 C-165.33246176 90.22464969 -165.38813729 85.5996338 -165.44335938 80.97460938 C-165.55090713 71.89979586 -165.65235964 62.82492514 -165.75 53.75 C-166.98049072 53.41045288 -168.21098145 53.07090576 -169.47875977 52.72106934 C-171.11215538 52.26917299 -172.7455368 51.81722529 -174.37890625 51.36523438 C-175.18767212 51.14220642 -175.99643799 50.91917847 -176.82971191 50.68939209 C-182.85339035 49.02090813 -188.81236351 47.20321551 -194.75 45.25 C-201.58823733 43.0346521 -208.43768092 40.94526424 -215.375 39.0625 C-234.67659587 33.82340413 -234.67659587 33.82340413 -236.75 31.75 C-236.82179964 30.23071962 -236.83392007 28.70832518 -236.8125 27.1875 C-236.80347656 26.36121094 -236.79445312 25.53492188 -236.78515625 24.68359375 C-236.77355469 24.04550781 -236.76195312 23.40742188 -236.75 22.75 C-233.03867494 20.46933767 -229.15569353 20.10006192 -224.91796875 19.6015625 C-224.14301559 19.50439438 -223.36806244 19.40722626 -222.56962585 19.30711365 C-220.02636565 18.98970131 -217.48198074 18.68246031 -214.9375 18.375 C-213.15305991 18.15369931 -211.3687182 17.93160401 -209.58447266 17.70874023 C-205.98460268 17.25979332 -202.38434476 16.8142014 -198.78369141 16.37158203 C-192.06085983 15.54370164 -185.34264705 14.68144482 -178.625 13.8125 C-176.80742187 13.57877686 -176.80742187 13.57877686 -174.953125 13.34033203 C-167.30539013 12.35305408 -159.66164651 11.33846362 -152.01953125 10.30859375 C-148.15889598 9.78875136 -144.29822451 9.26917925 -140.4375 8.75 C-139.47269714 8.62023773 -138.50789429 8.49047546 -137.51385498 8.35678101 C-124.25044916 6.57661559 -110.98019802 4.90952743 -97.68466187 3.38876343 C-86.50009968 2.10813432 -75.35104498 0.64881252 -64.20703125 -0.94384766 C-61.05628272 -1.39217369 -57.90421575 -1.82680939 -54.75 -2.25 C-53.94820312 -2.36037598 -53.14640625 -2.47075195 -52.3203125 -2.58447266 C-34.69553695 -4.7022645 -17.47879861 -2.26126696 0 0 Z " fill="#2D424D" transform="translate(292.75,202.25)"/>
<path d="M0 0 C7.48417243 1.12490315 14.64742525 3.84426955 21.79394531 6.25732422 C23.38315721 6.78740784 24.97257746 7.31686719 26.56219482 7.84573364 C29.8790002 8.95139498 33.19366511 10.06318359 36.50683594 11.1796875 C40.74566862 12.60779251 44.98882637 14.02249547 49.2335701 15.43292046 C52.51052813 16.52300924 55.78545863 17.61908387 59.05977631 18.71707535 C60.62369309 19.24093925 62.18814684 19.76320304 63.75315094 20.28380966 C65.93968412 21.01240591 68.12344754 21.74876983 70.30664062 22.48730469 C71.54746399 22.90398407 72.78828735 23.32066345 74.06671143 23.74996948 C81.67898858 26.69147326 81.67898858 26.69147326 83.34082031 30.01513672 C83.43362147 31.38500556 83.46546899 32.75926981 83.46539307 34.13227844 C83.46795609 34.99445984 83.4705191 35.85664124 83.47315979 36.74494934 C83.47106003 37.69302963 83.46896027 38.64110992 83.46679688 39.61791992 C83.46866501 40.61479828 83.47053314 41.61167664 83.47245789 42.63876343 C83.47646843 44.80882317 83.47853732 46.97888716 83.47891998 49.14895058 C83.48232642 53.7581202 83.50367712 58.36714759 83.52415085 62.97626781 C83.56222633 71.56468231 83.59343376 80.15294663 83.59130859 88.74145508 C83.59052254 94.70914794 83.61384169 100.67632309 83.65319061 106.64388084 C83.66366982 108.92004254 83.66516061 111.19626385 83.65753937 113.4724369 C83.6479411 116.65691967 83.66905716 119.8398293 83.69726562 123.02416992 C83.68706894 123.96617752 83.67687225 124.90818512 83.66636658 125.8787384 C83.75204877 131.36341282 83.75204877 131.36341282 86.75604248 135.88957214 C87.60901917 136.59100845 88.46199585 137.29244476 89.34082031 138.01513672 C91.40307793 141.16026985 91.58562762 143.60560272 91.56787109 147.33447266 C91.56772003 148.39527039 91.56756897 149.45606812 91.56741333 150.54901123 C91.55709076 151.68767639 91.54676819 152.82634155 91.53613281 153.99951172 C91.53330292 155.17024231 91.53047302 156.3409729 91.52755737 157.54718018 C91.51636187 161.28660297 91.49125807 165.02578631 91.46582031 168.76513672 C91.45578971 171.30028951 91.446664 173.83544605 91.43847656 176.37060547 C91.41812617 182.58561571 91.37897533 188.80010815 91.34082031 195.01513672 C80.78082031 195.01513672 70.22082031 195.01513672 59.34082031 195.01513672 C59.24886276 187.59467285 59.16925744 180.17619544 59.12109375 172.75561523 C59.10101068 170.23276053 59.07373874 167.70995219 59.0390625 165.18725586 C58.99040119 161.55554749 58.96781766 157.92445601 58.95019531 154.29248047 C58.92955017 153.16929916 58.90890503 152.04611786 58.88763428 150.88890076 C58.88577683 144.36854821 59.36086143 140.27308465 63.34082031 135.01513672 C64.33082031 134.35513672 65.32082031 133.69513672 66.34082031 133.01513672 C66.65664775 129.87769912 66.7781526 126.93385198 66.77319336 123.79199219 C66.78338501 122.83585022 66.79357666 121.87970825 66.80407715 120.89459229 C66.83435113 117.72377778 66.84349508 114.55326462 66.85253906 111.38232422 C66.86937506 109.18798812 66.88752382 106.99366174 66.90693665 104.79934692 C66.95455985 99.01583896 66.98428946 93.23237034 67.01037598 87.44873047 C67.04011946 81.55021389 67.08667101 75.65183306 67.13183594 69.75341797 C67.21800918 58.17406171 67.28529198 46.59467762 67.34082031 35.01513672 C66.48228486 34.83496789 66.48228486 34.83496789 65.60640526 34.65115929 C60.86920041 33.63208943 56.2788868 32.45446849 51.67529297 30.92382812 C50.4443692 30.51645416 49.21344543 30.1090802 47.94522095 29.68936157 C46.63160767 29.24897263 45.31816547 28.80807312 44.00488281 28.36669922 C42.63488275 27.9082994 41.26487736 27.44991549 39.89486694 26.99154663 C37.04117033 26.0351912 34.18892282 25.0746393 31.33740234 24.11181641 C27.68646541 22.88008761 24.03013178 21.66527071 20.37229347 20.45421791 C17.5485386 19.51609122 14.72891327 18.56601138 11.91028976 17.61259079 C10.56338589 17.15925174 9.21497924 16.71035185 7.86507034 16.2660408 C5.98248163 15.64510598 4.10605918 15.00556944 2.22998047 14.36523438 C1.16236481 14.00708649 0.09474915 13.6489386 -1.00521851 13.27993774 C-3.91469416 11.89336592 -5.06837367 10.78718733 -6.65917969 8.01513672 C-7.03417969 5.45263672 -7.03417969 5.45263672 -6.65917969 3.01513672 C-4.35938734 0.08182547 -3.96886951 0.01641779 0 0 Z " fill="#FDD263" transform="translate(240.6591796875,228.98486328125)"/>
<path d="M0 0 C0.1875 2.375 0.1875 2.375 0 5 C-3.35513859 7.23675906 -5.69812674 7.70513173 -9.640625 8.48046875 C-10.30764435 8.61418884 -10.9746637 8.74790894 -11.66189575 8.88568115 C-13.10402436 9.17441815 -14.54672825 9.46029342 -15.9899292 9.74362183 C-19.82687181 10.49719781 -23.65963445 11.27132631 -27.4921875 12.046875 C-28.27772003 12.2055455 -29.06325256 12.364216 -29.87258911 12.5276947 C-39.40344755 14.46717659 -48.87820314 16.65257305 -58.34863281 18.8659668 C-59.56131836 19.14609619 -60.77400391 19.42622559 -62.0234375 19.71484375 C-63.08481934 19.96355225 -64.14620117 20.21226074 -65.23974609 20.46850586 C-68 21 -68 21 -72 21 C-71.99333817 22.03681412 -71.98667633 23.07362823 -71.97981262 24.14186096 C-71.91892546 33.92588287 -71.87399084 43.70986619 -71.84456348 53.49403477 C-71.82892585 58.52385433 -71.80772226 63.5535206 -71.77368164 68.58325195 C-71.74102045 73.43970682 -71.72313268 78.29601448 -71.71536827 83.15257072 C-71.7098369 85.0028814 -71.69903547 86.85318428 -71.68280983 88.70343208 C-71.66094562 91.30059167 -71.65803682 93.89714755 -71.65942383 96.49438477 C-71.648638 97.25467987 -71.63785217 98.01497498 -71.6267395 98.79830933 C-71.66814571 105.99131026 -74.0273835 111.74666238 -78.8828125 117.109375 C-90.40846474 127.40165486 -111.23807383 139 -127 139 C-127.33 138.01 -127.66 137.02 -128 136 C-127.47535156 135.8040625 -126.95070313 135.608125 -126.41015625 135.40625 C-103.02486994 126.55391703 -103.02486994 126.55391703 -86 109 C-84.77982112 105.33946336 -84.82371118 101.94559681 -84.79467773 98.13208008 C-84.78477814 97.33184921 -84.77487854 96.53161835 -84.76467896 95.70713806 C-84.73308397 93.06129925 -84.70831442 90.41544248 -84.68359375 87.76953125 C-84.6630225 85.93535393 -84.64202598 84.10118133 -84.62062073 82.26701355 C-84.56541777 77.4386884 -84.51600063 72.61032058 -84.46777344 67.78192139 C-84.41754548 62.85522666 -84.36186616 57.92859391 -84.30664062 53.00195312 C-84.19908076 43.33468836 -84.09763093 33.66736978 -84 24 C-85.06744446 24.26899109 -86.13488892 24.53798218 -87.23468018 24.81512451 C-88.6658817 25.17464844 -90.09709575 25.53412249 -91.52832031 25.89355469 C-92.22821075 26.07006561 -92.9281012 26.24657654 -93.64920044 26.42843628 C-100.65170723 28.18500244 -107.68953837 29.7425376 -114.75 31.25 C-115.97976563 31.518125 -117.20953125 31.78625 -118.4765625 32.0625 C-119.65476562 32.31515625 -120.83296875 32.5678125 -122.046875 32.828125 C-123.09713867 33.0540332 -124.14740234 33.27994141 -125.22949219 33.51269531 C-128 34 -128 34 -132 34 C-132.66 32.02 -133.32 30.04 -134 28 C-133.12939941 27.81993408 -133.12939941 27.81993408 -132.24121094 27.63623047 C-119.20108391 24.93625871 -106.17348932 22.18401691 -93.15600586 19.37695312 C-84.29639963 17.47418641 -75.42332147 15.64374601 -66.54501343 13.83093262 C-56.02852136 11.68321351 -45.532616 9.50904926 -35.1015625 6.97265625 C-28.64886379 5.41641715 -22.15024896 4.05729135 -15.66137695 2.66162109 C-14.72511475 2.46004395 -13.78885254 2.2584668 -12.82421875 2.05078125 C-11.57257935 1.78261597 -11.57257935 1.78261597 -10.2956543 1.5090332 C-8.83836923 1.1858981 -7.38746655 0.83110318 -5.94848633 0.43432617 C-4 0 -4 0 0 0 Z " fill="#253740" transform="translate(456,228)"/>
<path d="M0 0 C14.51346206 4.2348665 28.99124393 8.58851028 43.47021484 12.93945312 C48.188032 14.35695193 52.90647166 15.77237076 57.625 17.1875 C59.20052528 17.66014144 60.77604618 18.13279745 62.3515625 18.60546875 C63.1137207 18.83411621 63.87587891 19.06276367 64.66113281 19.29833984 C65.43295898 19.5298877 66.20478516 19.76143555 67 20 C68.21574707 20.36472412 68.21574707 20.36472412 69.45605469 20.73681641 C71.13004557 21.23901367 72.80403646 21.74121094 74.47802734 22.2434082 C75.31027832 22.4930835 76.1425293 22.74275879 77 23 C112 33.5 112 33.5 114.50195312 34.25073242 C116.16200184 34.74864969 117.82215747 35.24621061 119.48242188 35.7434082 C123.75130773 37.02231342 128.01793363 38.3081083 132.28125 39.60546875 C136.47023061 40.87910581 140.66526171 42.13049866 144.86572266 43.36572266 C146.69031077 43.9079647 148.50805397 44.47314972 150.32421875 45.04296875 C163.21033585 48.7875021 175.97833005 47.45155379 188.85986328 44.47070312 C193.11331803 43.53519539 197.40512155 42.78998265 201.6875 42 C207.2711378 40.95297509 212.81196864 39.86883718 218.3125 38.4375 C241.37293513 32.45764504 241.37293513 32.45764504 252 36 C252 36.66 252 37.32 252 38 C230.46074308 42.9922581 208.89301997 47.79261599 187.24902344 52.30981445 C184.47379413 52.89935257 181.70938122 53.52094377 178.9453125 54.16015625 C168.59588891 56.45413792 159.92386544 54.95696308 149.9140625 52.03515625 C148.83355621 51.72599274 147.75304993 51.41682922 146.63980103 51.09829712 C133.51152716 47.32229019 120.42509659 43.40241585 107.34399414 39.4666748 C104.698083 38.67158917 102.05114348 37.87995645 99.4042387 37.08818626 C87.49731725 33.52480457 75.60436786 29.95775387 63.83886719 25.94873047 C60.07392878 24.69051318 56.27635881 23.62959688 52.4375 22.625 C44.61693539 20.51708662 36.91937141 18.0945043 29.21533203 15.59741211 C22.37581066 13.39584684 15.49867045 11.4064694 8.54492188 9.59765625 C5.24823891 8.72183028 2.86836092 7.91224061 0 6 C-0.1875 2.875 -0.1875 2.875 0 0 Z " fill="#1F2E35" transform="translate(56,228)"/>
<path d="M0 0 C10.56 0 21.12 0 32 0 C32 11.88 32 23.76 32 36 C21.44 36 10.88 36 0 36 C0 24.12 0 12.24 0 0 Z " fill="#FFE399" transform="translate(300,388)"/>
<path d="M0 0 C4.53618818 2.25831782 7.06301353 5.7338946 8.875 10.33984375 C9.31799643 13.35038361 9.25910819 16.24359109 9.125 19.27734375 C9.0425 21.93796875 8.96 24.59859375 8.875 27.33984375 C-1.685 27.33984375 -12.245 27.33984375 -23.125 27.33984375 C-23.2075 24.67921875 -23.29 22.01859375 -23.375 19.27734375 C-23.41141602 18.45355225 -23.44783203 17.62976074 -23.48535156 16.78100586 C-23.56916174 11.13666076 -22.34397134 7.98360568 -19.125 3.33984375 C-13.77598381 -1.74824483 -6.89593435 -2.14230313 0 0 Z " fill="#DF6B5A" transform="translate(323.125,360.66015625)"/>
<path d="M0 0 C0.1875 2.375 0.1875 2.375 0 5 C-3.32486249 7.216575 -5.59572534 7.68196315 -9.5 8.4453125 C-10.15413376 8.57584518 -10.80826752 8.70637787 -11.48222351 8.84086609 C-12.90416003 9.12446323 -14.32664665 9.40531277 -15.74960327 9.68374634 C-19.63464272 10.44551775 -23.51469949 11.23172472 -27.39453125 12.01953125 C-28.19792435 12.18251205 -29.00131744 12.34549286 -29.82905579 12.51341248 C-37.81368178 14.1451565 -45.75078523 15.96394754 -53.6875 17.8125 C-72.97007284 22.29410742 -92.33570293 26.38009501 -111.70811462 30.45301819 C-112.53678543 30.62756027 -113.36545624 30.80210236 -114.21923828 30.98193359 C-115.01380432 31.14892761 -115.80837036 31.31592163 -116.62701416 31.48797607 C-119.7574224 32.16343055 -122.87454507 32.89396228 -125.98971558 33.63638306 C-128 34 -128 34 -132 34 C-132.66 32.02 -133.32 30.04 -134 28 C-133.12939941 27.81993408 -133.12939941 27.81993408 -132.24121094 27.63623047 C-119.20108391 24.93625871 -106.17348932 22.18401691 -93.15600586 19.37695312 C-84.29639963 17.47418641 -75.42332147 15.64374601 -66.54501343 13.83093262 C-56.02852136 11.68321351 -45.532616 9.50904926 -35.1015625 6.97265625 C-28.64886379 5.41641715 -22.15024896 4.05729135 -15.66137695 2.66162109 C-14.72511475 2.46004395 -13.78885254 2.2584668 -12.82421875 2.05078125 C-11.57257935 1.78261597 -11.57257935 1.78261597 -10.2956543 1.5090332 C-8.83836923 1.1858981 -7.38746655 0.83110318 -5.94848633 0.43432617 C-4 0 -4 0 0 0 Z " fill="#202F36" transform="translate(456,228)"/>
<path d="M0 0 C2.64 0 5.28 0 8 0 C8 11.88 8 23.76 8 36 C5.36 36 2.72 36 0 36 C0 24.12 0 12.24 0 0 Z " fill="#FFD464" transform="translate(324,388)"/>
<path d="M0 0 C1.32 0 2.64 0 4 0 C4 11.88 4 23.76 4 36 C2.68 36 1.36 36 0 36 C0 24.12 0 12.24 0 0 Z " fill="#FFE399" transform="translate(320,388)"/>
<path d="M0 0 C1.32 0 2.64 0 4 0 C4 11.88 4 23.76 4 36 C2.68 36 1.36 36 0 36 C0 24.12 0 12.24 0 0 Z " fill="#FFD464" transform="translate(316,388)"/>
<path d="M0 0 C1.32 0 2.64 0 4 0 C4 11.88 4 23.76 4 36 C2.68 36 1.36 36 0 36 C0 24.12 0 12.24 0 0 Z " fill="#FFE399" transform="translate(312,388)"/>
<path d="M0 0 C1.32 0 2.64 0 4 0 C4 11.88 4 23.76 4 36 C2.68 36 1.36 36 0 36 C0 24.12 0 12.24 0 0 Z " fill="#FFD464" transform="translate(308,388)"/>
<path d="M0 0 C1.32 0 2.64 0 4 0 C4 11.88 4 23.76 4 36 C2.68 36 1.36 36 0 36 C0 24.12 0 12.24 0 0 Z " fill="#FFD464" transform="translate(300,388)"/>
</svg>
